<mxfile host="app.diagrams.net" modified="2020-12-04T06:41:01.107Z" agent="5.0 (Windows NT 10.0; Win64; x64) AppleWebKit/537.36 (KHTML, like Gecko) Chrome/86.0.4240.198 Safari/537.36" etag="EhpxkLqDSlJOMBLsgpWz" version="13.10.8" type="github">
  <diagram id="nNY8WfsLUdl8HgaFd1VL" name="Page-1">
    <mxGraphModel dx="920" dy="552" grid="1" gridSize="10" guides="1" tooltips="1" connect="1" arrows="1" fold="1" page="1" pageScale="1" pageWidth="850" pageHeight="1100" math="0" shadow="0">
      <root>
        <mxCell id="0" />
        <mxCell id="1" parent="0" />
        <mxCell id="WNohDacFWRxzgRTMP_bQ-2" value="" style="html=1;shadow=0;dashed=0;align=center;verticalAlign=middle;shape=mxgraph.arrows2.uTurnArrow;dy=11;arrowHead=43;dx2=25;" vertex="1" parent="1">
          <mxGeometry x="310" y="500" width="100" height="230" as="geometry" />
        </mxCell>
        <mxCell id="WNohDacFWRxzgRTMP_bQ-3" value="" style="html=1;shadow=0;dashed=0;align=center;verticalAlign=middle;shape=mxgraph.arrows2.uTurnArrow;dy=11;arrowHead=43;dx2=25;rotation=-180;" vertex="1" parent="1">
          <mxGeometry x="460" y="540" width="80" height="180" as="geometry" />
        </mxCell>
      </root>
    </mxGraphModel>
  </diagram>
</mxfile>
